<?xml version="1.0" encoding="UTF-8" standalone="no"?>
<svg
   width="100"
   height="100"
   viewBox="0 0 1024 1024"
   version="1.1"
   id="svg16"
   sodipodi:docname="sailing-osrs.svg"
   inkscape:version="1.1 (c68e22c387, 2021-05-23)"
   xmlns:inkscape="http://www.inkscape.org/namespaces/inkscape"
   xmlns:sodipodi="http://sodipodi.sourceforge.net/DTD/sodipodi-0.dtd"
   xmlns:xlink="http://www.w3.org/1999/xlink"
   xmlns="http://www.w3.org/2000/svg"
   xmlns:svg="http://www.w3.org/2000/svg">
  <defs
     id="defs20">
    <linearGradient
       id="linearGradient17451"
       inkscape:swatch="solid">
      <stop
         style="stop-color:#929a95;stop-opacity:1;"
         offset="0"
         id="stop17449" />
    </linearGradient>
    <inkscape:path-effect
       effect="spiro"
       id="path-effect1759"
       is_visible="true"
       lpeversion="1" />
    <linearGradient
       inkscape:collect="always"
       xlink:href="#linearGradient17451"
       id="linearGradient17453"
       x1="7.0230508"
       y1="514.03176"
       x2="1017.1773"
       y2="514.03176"
       gradientUnits="userSpaceOnUse"
       gradientTransform="scale(0.09765625)" />
  </defs>
  <sodipodi:namedview
     id="namedview18"
     pagecolor="#ffffff"
     bordercolor="#666666"
     borderopacity="1.0"
     inkscape:pageshadow="2"
     inkscape:pageopacity="0.0"
     inkscape:pagecheckerboard="0"
     showgrid="false"
     inkscape:zoom="5.04"
     inkscape:cx="49.503968"
     inkscape:cy="53.670635"
     inkscape:window-width="1920"
     inkscape:window-height="1017"
     inkscape:window-x="1912"
     inkscape:window-y="-8"
     inkscape:window-maximized="1"
     inkscape:current-layer="svg16" />
  <g
     id="g17314"
     style="opacity:1"
     transform="matrix(0.97226067,0,0,0.98443637,14.211217,10.031922)">
    <path
       id="path1862"
       style="opacity:1;fill:url(#linearGradient17453);fill-opacity:1;fill-rule:evenodd;stroke:#000000;stroke-width:3.125;stroke-linecap:butt;stroke-linejoin:miter;stroke-miterlimit:4;stroke-dasharray:none;stroke-opacity:1"
       d="M 74.064173,19.028983 68.253906,24.207031 62.5,24.007812 53.173828,15.080078 52.540235,9.9331513 48.350894,5.953125 C 33.026901,7.7487822 36.547555,5.8412651 35.900447,20.229335 l 4.336997,3.979714 6.178572,-0.580143 8.345703,8.117188 -0.396485,6.15039 -25.199218,25.595704 -5.951172,-0.199219 -3.96875,-3.373047 0.595703,-5.951172 -4.761719,-3.572266 c 0.09431,-9.864656 0,2.579365 -4.65e-4,-18.451565 l 0.07307,9.716084 9.251613,0.0051 -0.396485,-26.984375 H 15.673827 C 6.6289778,17.346206 4.0943494,17.381417 1.1914062,23.611427 V 32.73838 L 6.3496094,32.737528 6.546875,44.246147 1.1914062,45.4356 2.1658667,69.977757 8.9393937,82.652677 C 11.370497,88.335722 17.4809,91.583704 24.014627,93.991303 l 13.322191,3.849048 18.417088,0.374592 v -4.960938 l 11.507813,-0.199218 0.199219,5.348475 h 8.134765 c 6.569836,-5.350572 5.980608,-5.133985 8.927735,-13.680166 v -8.531591 l -26.189454,-0.199218 0.594091,8.927734 8.929068,0.396825 -18.452846,-0.396825 -3.570313,-4.365234 h -6.349609 l -3.373047,-3.373047 1.587891,-6.546875 25,-25.199219 5.753906,0.398437 7.738281,7.935547 v 6.34961 l 4.166016,3.372948 C 94.532175,59.90683 91.451231,63.230397 93.253906,50 l -4.365234,-4.564453 -5.554688,0.199219 -7.541015,-7.935547 0.199219,-6.945313 5.617855,-5.58776 C 96.67572,27.315735 101.36396,13.590332 94.218244,6.8864613 86.249912,-0.58915543 74.085781,2.7520066 74.064173,19.028983 Z m 8.92288,-7.310676 c -2.727775,3.865094 2.533197,8.479091 5.908178,5.035902 3.730734,-3.806132 -2.739549,-8.5561699 -5.908178,-5.035902 z"
       transform="scale(10.24)"
       sodipodi:nodetypes="ccccccccccccccccccccccccccccccccccccccccccccccccccccccccsccsc" />
  </g>
</svg>
